<svg xmlns="http://www.w3.org/2000/svg" xmlns:xlink="http://www.w3.org/1999/xlink" width="2000" zoomAndPan="magnify" viewBox="0 0 1500 1499.999933" height="2000" preserveAspectRatio="xMidYMid meet" version="1.0"><style>g[fill="#000000"]{fill:#2c2c2a;}@media (prefers-color-scheme:dark){g[fill="#000000"]{fill:#f5f0e8;}}</style><defs><g/><clipPath id="056eea1966"><rect x="0" width="892" y="0" height="831"/></clipPath><clipPath id="9819aced3c"><rect x="0" width="1482" y="0" height="1500"/></clipPath></defs><g transform="matrix(1, 0, 0, 1, 404, 350)"><g clip-path="url(#056eea1966)"><g fill="#000000" fill-opacity="1"><g transform="translate(0.468084, 642.959393)"><g><path d="M 159.625 0 L 159.625 -10.421875 C 171.925781 -14.171875 180.347656 -22.191406 184.890625 -34.484375 C 189.441406 -46.785156 191.71875 -69.25 191.71875 -101.875 L 191.71875 -548.671875 L 152.40625 -548.671875 C 116.570312 -548.671875 89.296875 -543.050781 70.578125 -531.8125 C 51.867188 -520.582031 35.5625 -500.53125 21.65625 -471.65625 L 12.828125 -473.265625 L 17.640625 -561.5 L 430.75 -561.5 L 435.5625 -473.265625 L 426.734375 -471.65625 C 413.367188 -500.53125 397.328125 -520.582031 378.609375 -531.8125 C 359.890625 -543.050781 332.347656 -548.671875 295.984375 -548.671875 L 258.296875 -548.671875 L 258.296875 -101.875 C 258.296875 -69.25 260.566406 -46.785156 265.109375 -34.484375 C 269.648438 -22.191406 278.070312 -14.171875 290.375 -10.421875 L 290.375 0 Z M 159.625 0 "/></g></g></g><g fill="#000000" fill-opacity="1"><g transform="translate(449.666636, 642.959393)"><g><path d="M 228.609375 8.015625 C 186.359375 8.015625 148.390625 1.867188 114.703125 -10.421875 C 81.015625 -22.722656 54.8125 -35.5625 36.09375 -48.9375 L 32.078125 -160.421875 L 40.90625 -162.03125 C 51.601562 -134.226562 65.640625 -108.425781 83.015625 -84.625 C 100.398438 -60.832031 122.460938 -41.847656 149.203125 -27.671875 C 175.941406 -13.503906 207.757812 -6.421875 244.65625 -6.421875 C 266.039062 -6.421875 285.820312 -10.832031 304 -19.65625 C 322.1875 -28.476562 336.757812 -40.910156 347.71875 -56.953125 C 358.6875 -72.992188 364.171875 -91.710938 364.171875 -113.109375 C 364.171875 -133.421875 358.820312 -151.0625 348.125 -166.03125 C 337.4375 -181.007812 323.535156 -194.113281 306.421875 -205.34375 C 289.304688 -216.570312 271.253906 -226.332031 252.265625 -234.625 C 233.285156 -242.914062 215.238281 -250.535156 198.125 -257.484375 C 166.570312 -270.316406 139.164062 -283.285156 115.90625 -296.390625 C 92.644531 -309.492188 74.726562 -325.269531 62.15625 -343.71875 C 49.59375 -362.164062 43.3125 -385.5625 43.3125 -413.90625 C 43.3125 -445.457031 51.46875 -472.59375 67.78125 -495.3125 C 84.09375 -518.039062 106.953125 -535.6875 136.359375 -548.25 C 165.773438 -560.820312 200 -567.109375 239.03125 -567.109375 C 275.394531 -567.109375 306.675781 -563.097656 332.875 -555.078125 C 359.082031 -547.054688 379.941406 -538.769531 395.453125 -530.21875 L 398.65625 -437.171875 L 390.640625 -434.765625 C 375.671875 -469.523438 353.878906 -498.132812 325.265625 -520.59375 C 296.660156 -543.050781 259.363281 -554.28125 213.375 -554.28125 C 191.976562 -554.28125 172.054688 -550.132812 153.609375 -541.84375 C 135.160156 -533.550781 120.453125 -521.648438 109.484375 -506.140625 C 98.523438 -490.640625 93.046875 -471.390625 93.046875 -448.390625 C 93.046875 -429.679688 97.59375 -413.375 106.6875 -399.46875 C 115.78125 -385.5625 127.8125 -373.523438 142.78125 -363.359375 C 157.75 -353.203125 174.054688 -344.242188 191.703125 -336.484375 C 209.359375 -328.734375 226.738281 -321.382812 243.84375 -314.4375 C 273.789062 -302.675781 301.863281 -290.109375 328.0625 -276.734375 C 354.269531 -263.367188 375.53125 -247.0625 391.84375 -227.8125 C 408.15625 -208.5625 416.3125 -183.691406 416.3125 -153.203125 C 416.3125 -120.046875 407.21875 -91.300781 389.03125 -66.96875 C 370.851562 -42.644531 347.457031 -24.066406 318.84375 -11.234375 C 290.238281 1.597656 260.160156 8.015625 228.609375 8.015625 Z M 228.609375 8.015625 "/></g></g></g></g></g><g transform="matrix(1, 0, 0, 1, 10, 0.000000000000112861)"><g clip-path="url(#9819aced3c)"><g fill="#000000" fill-opacity="1"><g transform="translate(0.232557, 1439.203173)"><g><path d="M 856.5625 19.96875 C 703.488281 19.96875 570.710938 -7.316406 458.234375 -61.890625 C 345.753906 -116.472656 258.566406 -195.34375 196.671875 -298.5 C 134.773438 -401.65625 103.828125 -525.773438 103.828125 -670.859375 C 103.828125 -777.347656 123.125 -875.515625 161.71875 -965.359375 C 200.320312 -1055.210938 255.234375 -1133.75 326.453125 -1200.96875 C 397.671875 -1268.1875 482.195312 -1320.097656 580.03125 -1356.703125 C 677.863281 -1393.316406 785.347656 -1411.625 902.484375 -1411.625 C 959.722656 -1411.625 1017.957031 -1406.628906 1077.1875 -1396.640625 C 1136.425781 -1386.660156 1190.671875 -1374.347656 1239.921875 -1359.703125 C 1289.171875 -1345.066406 1326.441406 -1329.09375 1351.734375 -1311.78125 L 1359.71875 -1074.1875 L 1339.75 -1070.1875 C 1301.15625 -1160.707031 1236.929688 -1233.921875 1147.078125 -1289.828125 C 1057.222656 -1345.734375 953.066406 -1373.6875 834.609375 -1373.6875 C 729.441406 -1373.6875 634.265625 -1350.390625 549.078125 -1303.796875 C 463.890625 -1257.210938 396.335938 -1187.992188 346.421875 -1096.140625 C 296.503906 -1004.296875 271.546875 -890.488281 271.546875 -754.71875 C 271.546875 -661.539062 285.1875 -571.023438 312.46875 -483.171875 C 339.757812 -395.328125 380.691406 -316.460938 435.265625 -246.578125 C 489.847656 -176.703125 557.070312 -121.460938 636.9375 -80.859375 C 716.800781 -40.265625 808.644531 -19.96875 912.46875 -19.96875 C 1020.289062 -19.96875 1114.46875 -47.921875 1195 -103.828125 C 1275.53125 -159.734375 1335.097656 -241.597656 1373.703125 -349.421875 L 1395.65625 -347.421875 L 1363.71875 -87.859375 C 1317.125 -62.566406 1248.898438 -38.269531 1159.046875 -14.96875 C 1069.203125 8.320312 968.375 19.96875 856.5625 19.96875 Z M 856.5625 19.96875 "/></g></g></g></g></g></svg>